<svg width="87" height="114" viewBox="0 0 87 114" fill="none" xmlns="http://www.w3.org/2000/svg">
<path fill="#F04D21" d="M76.0057 39.8151L86.3291 21.7674C86.6535 21.2002 86.6535 20.5056 86.3291 19.9384L75.4842 0.974119C75.4801 0.965899 75.4719 0.957679 75.4678 0.945348C75.439 0.896026 75.4062 0.846704 75.3692 0.797382C75.3569 0.780942 75.3446 0.764503 75.3322 0.748063C75.2871 0.694631 75.2419 0.641197 75.1968 0.591875C75.1926 0.587765 75.1926 0.587766 75.1926 0.583656C75.1434 0.534334 75.0859 0.485014 75.0325 0.443912C75.0161 0.431582 74.9996 0.41925 74.9832 0.406919C74.938 0.374038 74.8929 0.341159 74.8436 0.312388C74.8272 0.304167 74.8149 0.295944 74.7984 0.283613C74.6711 0.213741 74.5356 0.1562 74.3919 0.115099C74.3755 0.110989 74.3591 0.106879 74.3385 0.102769C74.2852 0.0904385 74.2277 0.0781073 74.1702 0.069887C74.1496 0.0657768 74.1332 0.061668 74.1127 0.061668C74.0388 0.0534477 73.9648 0.0452271 73.8909 0.0452271H12.6815C12.6076 0.0452271 12.5295 0.0493376 12.4597 0.061668C12.4392 0.0657782 12.4228 0.0657768 12.4022 0.069887C12.3447 0.0781073 12.2873 0.0904385 12.2339 0.102769C12.2175 0.106879 12.197 0.110989 12.1805 0.115099C12.0368 0.1562 11.9012 0.213741 11.774 0.283613C11.7575 0.291834 11.7452 0.300056 11.7329 0.308277C11.6836 0.337048 11.6385 0.369927 11.5933 0.402808C11.5769 0.415139 11.5604 0.427471 11.544 0.439801C11.4865 0.485013 11.4331 0.530224 11.3839 0.583656L11.3798 0.587767C11.3305 0.637089 11.2853 0.69052 11.2402 0.748063C11.2278 0.764503 11.2155 0.780942 11.2032 0.797382C11.1663 0.846704 11.1334 0.896026 11.1047 0.945348C11.1006 0.953568 11.0923 0.961789 11.0882 0.974119L0.243302 19.9384C-0.0811007 20.5056 -0.0811007 21.2002 0.243302 21.7674L10.846 40.3042V101.106C10.846 101.18 10.85 101.258 10.8624 101.328C10.8665 101.348 10.8665 101.365 10.8706 101.385C10.8788 101.443 10.8911 101.5 10.9034 101.554C10.9075 101.57 10.9116 101.591 10.9157 101.607C10.9568 101.751 11.0143 101.887 11.0841 102.014C11.0923 102.03 11.1005 102.043 11.1087 102.055C11.1375 102.104 11.1704 102.15 11.2032 102.195C11.2155 102.211 11.2278 102.228 11.2402 102.244C11.2853 102.302 11.3305 102.355 11.3839 102.404L11.388 102.409C11.4373 102.458 11.4906 102.503 11.5481 102.548C11.5646 102.561 11.581 102.573 11.5974 102.585C11.6467 102.622 11.696 102.655 11.7452 102.684C11.7534 102.688 11.7617 102.696 11.7699 102.7L30.7166 113.555C30.9999 113.716 31.3162 113.798 31.6324 113.798C31.9486 113.798 32.2647 113.716 32.5481 113.555L51.4948 102.7C51.5031 102.696 51.5112 102.688 51.5236 102.684C51.5728 102.655 51.6221 102.622 51.6714 102.585C51.6878 102.573 51.7042 102.561 51.7207 102.548C51.774 102.503 51.8274 102.458 51.8767 102.413C51.8808 102.409 51.8808 102.409 51.8849 102.409C51.9342 102.359 51.9835 102.302 52.0245 102.248C52.0368 102.232 52.0492 102.215 52.0615 102.199C52.0944 102.154 52.1272 102.109 52.156 102.059C52.1642 102.043 52.1724 102.03 52.1806 102.014C52.2504 101.887 52.3079 101.751 52.3489 101.607C52.3531 101.591 52.3572 101.574 52.3613 101.554C52.3736 101.5 52.3859 101.443 52.3941 101.385C52.3982 101.365 52.4023 101.348 52.4023 101.328C52.4105 101.254 52.4188 101.18 52.4188 101.106V79.5808H73.895C73.9689 79.5808 74.047 79.5767 74.1168 79.5643C74.1373 79.5602 74.1537 79.5602 74.1743 79.5561C74.2318 79.5479 74.2893 79.5356 74.3427 79.5232C74.3591 79.5191 74.3796 79.515 74.396 79.5109C74.5397 79.4698 74.6753 79.4122 74.8026 79.3424C74.819 79.3342 74.8313 79.3259 74.8477 79.3136C74.897 79.2848 74.9422 79.252 74.9873 79.2191C75.0038 79.2067 75.0202 79.1944 75.0366 79.1821C75.0941 79.1369 75.1475 79.0917 75.1968 79.0423C75.2009 79.0382 75.2009 79.0382 75.2009 79.0341C75.2501 78.9848 75.2953 78.9314 75.3364 78.8779C75.3487 78.8615 75.361 78.845 75.3733 78.8286C75.4103 78.7793 75.4391 78.73 75.4719 78.6806C75.476 78.6724 75.4842 78.6642 75.4883 78.6519L86.3332 59.6876C86.6576 59.1204 86.6576 58.4258 86.3332 57.8586L76.0057 39.8151ZM61.9742 56.9338H31.7227C31.2751 56.9133 30.8234 57.0489 30.4579 57.3531C30.4456 57.3654 30.4333 57.3777 30.421 57.3901C30.3922 57.4147 30.3594 57.4435 30.3306 57.4682C30.3306 57.4682 30.3306 57.4682 30.3265 57.4723C29.9939 57.8052 29.7845 58.2655 29.7845 58.7752V89.1821L14.517 97.9285V41.6564H70.7085L61.9742 56.9338ZM48.7312 97.9285L33.4638 89.1821V63.21L48.7312 78.4957V97.9285ZM61.9742 19.0136H24.5941L15.8557 3.73203H70.7167L61.9742 19.0136ZM24.5899 22.6922H61.9702L70.7085 37.9737H15.8475L24.5899 22.6922ZM73.8827 36.1077L65.1567 20.8508L73.8827 5.59393L82.6087 20.8508L73.8827 36.1077ZM12.6815 5.59804L21.4075 20.8549L12.6815 36.1077L3.95547 20.8508L12.6815 5.59804ZM31.6241 109.84L16.3813 101.106L31.6241 92.3716L46.867 101.106L31.6241 109.84ZM51.3347 75.8981L36.0713 60.6165H61.9702L70.7126 75.8981H51.3347ZM73.8827 74.0362L65.1567 58.7793L73.8827 43.5224L82.6087 58.7793L73.8827 74.0362Z" />
</svg>
